<svg width="3050" height="655" viewBox="0 0 3050 655" fill="none" xmlns="http://www.w3.org/2000/svg">
<rect x="362.477" y="503.544" width="75" height="350" rx="37.5" transform="rotate(-160 362.477 503.544)" fill="#0B22EE"/>
<rect y="154" width="75" height="350" rx="37.5" fill="#0B22EE"/>
<rect x="35" y="329.033" width="75" height="255" rx="37.5" transform="rotate(-45 35 329.033)" fill="#0B93EE"/>
<rect x="88.033" y="381.881" width="75" height="260" rx="37.5" transform="rotate(-135 88.033 381.881)" fill="#0B93EE"/>
<rect x="3049.88" y="327.312" width="75" height="255" rx="37.5" transform="rotate(135 3049.88 327.312)" fill="#0B93EE"/>
<rect x="2996.85" y="274.464" width="75" height="260" rx="37.5" transform="rotate(45 2996.85 274.464)" fill="#0B93EE"/>
<path d="M577.52 489.32C565.36 489.32 556.08 485.96 549.68 479.24C543.28 472.52 540.08 463.08 540.08 450.92V180.2C540.08 168.04 543.28 158.76 549.68 152.36C556.08 145.64 565.36 142.28 577.52 142.28C589.36 142.28 598.48 145.64 604.88 152.36C611.28 158.76 614.48 168.04 614.48 180.2V293.96H615.44L743.12 160.52C748.56 154.76 754.16 150.44 759.92 147.56C766 144.36 772.88 142.76 780.56 142.76C791.76 142.76 799.76 145.64 804.56 151.4C809.68 157.16 811.92 163.88 811.28 171.56C810.64 179.24 807.12 186.44 800.72 193.16L672.56 324.2L673.04 292.04L807.44 435.56C814.8 443.56 818.48 451.72 818.48 460.04C818.8 468.36 816.08 475.4 810.32 481.16C804.88 486.6 796.72 489.32 785.84 489.32C776.56 489.32 769.04 487.4 763.28 483.56C757.84 479.72 751.76 474.12 745.04 466.76L615.44 330.44H614.48V450.92C614.48 463.08 611.28 472.52 604.88 479.24C598.8 485.96 589.68 489.32 577.52 489.32ZM943.989 490.28C926.709 490.28 911.189 486.92 897.429 480.2C883.669 473.48 872.949 464.36 865.269 452.84C857.589 441.32 853.749 428.36 853.749 413.96C853.749 396.68 858.229 383.08 867.189 373.16C876.149 362.92 890.709 355.72 910.869 351.56C931.029 347.08 957.749 344.84 991.029 344.84H1016.47V382.28H991.509C975.189 382.28 961.909 383.24 951.669 385.16C941.749 386.76 934.549 389.64 930.069 393.8C925.909 397.96 923.829 403.72 923.829 411.08C923.829 420.04 926.869 427.4 932.949 433.16C939.349 438.92 948.469 441.8 960.309 441.8C969.589 441.8 977.749 439.72 984.789 435.56C992.149 431.08 997.909 425.16 1002.07 417.8C1006.23 410.12 1008.31 401.48 1008.31 391.88V336.68C1008.31 322.6 1005.11 312.68 998.709 306.92C992.309 300.84 981.429 297.8 966.069 297.8C957.429 297.8 947.989 298.92 937.749 301.16C927.829 303.08 916.789 306.44 904.629 311.24C897.589 314.44 891.349 315.24 885.909 313.64C880.469 311.72 876.309 308.52 873.429 304.04C870.549 299.24 869.109 294.12 869.109 288.68C869.109 282.92 870.709 277.48 873.909 272.36C877.109 266.92 882.389 262.92 889.749 260.36C904.789 254.28 918.869 250.12 931.989 247.88C945.429 245.64 957.749 244.52 968.949 244.52C993.589 244.52 1013.75 248.2 1029.43 255.56C1045.43 262.6 1057.43 273.64 1065.43 288.68C1073.43 303.4 1077.43 322.44 1077.43 345.8V452.36C1077.43 464.2 1074.55 473.32 1068.79 479.72C1063.03 486.12 1054.71 489.32 1043.83 489.32C1032.95 489.32 1024.47 486.12 1018.39 479.72C1012.63 473.32 1009.75 464.2 1009.75 452.36V434.6L1013.11 437.48C1011.19 448.36 1007.03 457.8 1000.63 465.8C994.549 473.48 986.709 479.56 977.109 484.04C967.509 488.2 956.469 490.28 943.989 490.28ZM1221.74 490.28C1207.66 490.28 1193.1 489 1178.06 486.44C1163.34 483.88 1149.9 479.56 1137.74 473.48C1131.34 470.28 1126.7 466.28 1123.82 461.48C1121.26 456.36 1120.14 451.24 1120.46 446.12C1120.78 441 1122.38 436.36 1125.26 432.2C1128.46 428.04 1132.46 425.32 1137.26 424.04C1142.38 422.44 1147.98 422.92 1154.06 425.48C1167.18 430.92 1179.18 434.76 1190.06 437C1200.94 439.24 1211.66 440.36 1222.22 440.36C1235.98 440.36 1245.9 438.28 1251.98 434.12C1258.38 429.64 1261.58 423.88 1261.58 416.84C1261.58 410.44 1259.5 405.64 1255.34 402.44C1251.18 399.24 1245.1 397 1237.1 395.72L1186.7 386.6C1166.86 383.08 1151.5 375.88 1140.62 365C1130.06 353.8 1124.78 339.56 1124.78 322.28C1124.78 306.28 1129.26 292.52 1138.22 281C1147.18 269.16 1159.5 260.2 1175.18 254.12C1191.18 247.72 1209.26 244.52 1229.42 244.52C1243.82 244.52 1257.1 245.8 1269.26 248.36C1281.42 250.92 1293.1 255.08 1304.3 260.84C1310.06 263.72 1314.06 267.56 1316.3 272.36C1318.86 277.16 1319.66 282.12 1318.7 287.24C1318.06 292.36 1316.14 297 1312.94 301.16C1309.74 305.32 1305.58 308.04 1300.46 309.32C1295.66 310.6 1290.06 309.96 1283.66 307.4C1273.42 302.6 1263.98 299.24 1255.34 297.32C1246.7 295.08 1238.38 293.96 1230.38 293.96C1215.98 293.96 1205.58 296.36 1199.18 301.16C1192.78 305.64 1189.58 311.4 1189.58 318.44C1189.58 323.88 1191.34 328.52 1194.86 332.36C1198.7 335.88 1204.46 338.28 1212.14 339.56L1262.54 348.68C1283.34 352.2 1299.18 359.24 1310.06 369.8C1320.94 380.04 1326.38 394.12 1326.38 412.04C1326.38 436.36 1316.78 455.56 1297.58 469.64C1278.7 483.4 1253.42 490.28 1221.74 490.28ZM1513.19 490.28C1494.31 490.28 1477.51 485.64 1462.79 476.36C1448.39 466.76 1438.79 454.12 1433.99 438.44L1439.27 422.6V452.36C1439.27 464.2 1436.23 473.32 1430.15 479.72C1424.07 486.12 1415.27 489.32 1403.75 489.32C1392.23 489.32 1383.27 486.12 1376.87 479.72C1370.79 473.32 1367.75 464.2 1367.75 452.36V179.24C1367.75 167.08 1370.79 157.96 1376.87 151.88C1383.27 145.48 1392.39 142.28 1404.23 142.28C1415.75 142.28 1424.55 145.48 1430.63 151.88C1437.03 157.96 1440.23 167.08 1440.23 179.24V293H1434.47C1439.59 278.6 1449.35 266.92 1463.75 257.96C1478.15 249 1494.63 244.52 1513.19 244.52C1533.99 244.52 1552.07 249.48 1567.43 259.4C1582.79 269.32 1594.79 283.4 1603.43 301.64C1612.07 319.88 1616.39 341.64 1616.39 366.92C1616.39 392.2 1612.07 414.12 1603.43 432.68C1594.79 451.24 1582.63 465.48 1566.95 475.4C1551.59 485.32 1533.67 490.28 1513.19 490.28ZM1491.59 436.04C1501.83 436.04 1510.79 433.48 1518.47 428.36C1526.47 423.24 1532.55 415.72 1536.71 405.8C1541.19 395.56 1543.43 382.6 1543.43 366.92C1543.43 343.56 1538.63 326.44 1529.03 315.56C1519.43 304.36 1506.95 298.76 1491.59 298.76C1481.35 298.76 1472.23 301.16 1464.23 305.96C1456.55 310.76 1450.47 318.28 1445.99 328.52C1441.51 338.44 1439.27 351.24 1439.27 366.92C1439.27 390.28 1444.07 407.72 1453.67 419.24C1463.27 430.44 1475.91 436.04 1491.59 436.04ZM1740.4 490.28C1723.12 490.28 1707.6 486.92 1693.84 480.2C1680.08 473.48 1669.36 464.36 1661.68 452.84C1654 441.32 1650.16 428.36 1650.16 413.96C1650.16 396.68 1654.64 383.08 1663.6 373.16C1672.56 362.92 1687.12 355.72 1707.28 351.56C1727.44 347.08 1754.16 344.84 1787.44 344.84H1812.88V382.28H1787.92C1771.6 382.28 1758.32 383.24 1748.08 385.16C1738.16 386.76 1730.96 389.64 1726.48 393.8C1722.32 397.96 1720.24 403.72 1720.24 411.08C1720.24 420.04 1723.28 427.4 1729.36 433.16C1735.76 438.92 1744.88 441.8 1756.72 441.8C1766 441.8 1774.16 439.72 1781.2 435.56C1788.56 431.08 1794.32 425.16 1798.48 417.8C1802.64 410.12 1804.72 401.48 1804.72 391.88V336.68C1804.72 322.6 1801.52 312.68 1795.12 306.92C1788.72 300.84 1777.84 297.8 1762.48 297.8C1753.84 297.8 1744.4 298.92 1734.16 301.16C1724.24 303.08 1713.2 306.44 1701.04 311.24C1694 314.44 1687.76 315.24 1682.32 313.64C1676.88 311.72 1672.72 308.52 1669.84 304.04C1666.96 299.24 1665.52 294.12 1665.52 288.68C1665.52 282.92 1667.12 277.48 1670.32 272.36C1673.52 266.92 1678.8 262.92 1686.16 260.36C1701.2 254.28 1715.28 250.12 1728.4 247.88C1741.84 245.64 1754.16 244.52 1765.36 244.52C1790 244.52 1810.16 248.2 1825.84 255.56C1841.84 262.6 1853.84 273.64 1861.84 288.68C1869.84 303.4 1873.84 322.44 1873.84 345.8V452.36C1873.84 464.2 1870.96 473.32 1865.2 479.72C1859.44 486.12 1851.12 489.32 1840.24 489.32C1829.36 489.32 1820.88 486.12 1814.8 479.72C1809.04 473.32 1806.16 464.2 1806.16 452.36V434.6L1809.52 437.48C1807.6 448.36 1803.44 457.8 1797.04 465.8C1790.96 473.48 1783.12 479.56 1773.52 484.04C1763.92 488.2 1752.88 490.28 1740.4 490.28ZM1965.34 489.32C1953.18 489.32 1943.9 486.12 1937.5 479.72C1931.1 473.32 1927.9 464.2 1927.9 452.36V281.96C1927.9 270.12 1930.94 261.16 1937.02 255.08C1943.42 248.68 1952.22 245.48 1963.42 245.48C1974.94 245.48 1983.74 248.68 1989.82 255.08C1995.9 261.16 1998.94 270.12 1998.94 281.96V306.92H1994.14C1997.98 287.72 2006.46 272.84 2019.58 262.28C2032.7 251.72 2049.66 245.8 2070.46 244.52C2078.46 243.88 2084.54 245.96 2088.7 250.76C2093.18 255.24 2095.58 262.76 2095.9 273.32C2096.54 283.24 2094.46 291.08 2089.66 296.84C2085.18 302.6 2077.5 306.12 2066.62 307.4L2055.58 308.36C2037.34 309.96 2023.74 315.24 2014.78 324.2C2006.14 333.16 2001.82 346.12 2001.82 363.08V452.36C2001.82 464.2 1998.62 473.32 1992.22 479.72C1986.14 486.12 1977.18 489.32 1965.34 489.32ZM2162.2 488.84C2150.36 488.84 2141.24 485.48 2134.84 478.76C2128.76 471.72 2125.72 461.96 2125.72 449.48V285.32C2125.72 272.52 2128.76 262.76 2134.84 256.04C2141.24 249 2150.36 245.48 2162.2 245.48C2173.72 245.48 2182.52 249 2188.6 256.04C2195 262.76 2198.2 272.52 2198.2 285.32V449.48C2198.2 461.96 2195.16 471.72 2189.08 478.76C2183 485.48 2174.04 488.84 2162.2 488.84ZM2162.2 206.12C2148.76 206.12 2138.36 203.08 2131 197C2123.96 190.6 2120.44 181.64 2120.44 170.12C2120.44 158.28 2123.96 149.32 2131 143.24C2138.36 136.84 2148.76 133.64 2162.2 133.64C2175.64 133.64 2185.88 136.84 2192.92 143.24C2199.96 149.32 2203.48 158.28 2203.48 170.12C2203.48 181.64 2199.96 190.6 2192.92 197C2185.88 203.08 2175.64 206.12 2162.2 206.12ZM2333.83 490.28C2316.55 490.28 2301.03 486.92 2287.27 480.2C2273.51 473.48 2262.79 464.36 2255.11 452.84C2247.43 441.32 2243.59 428.36 2243.59 413.96C2243.59 396.68 2248.07 383.08 2257.03 373.16C2265.99 362.92 2280.55 355.72 2300.71 351.56C2320.87 347.08 2347.59 344.84 2380.87 344.84H2406.31V382.28H2381.35C2365.03 382.28 2351.75 383.24 2341.51 385.16C2331.59 386.76 2324.39 389.64 2319.91 393.8C2315.75 397.96 2313.67 403.72 2313.67 411.08C2313.67 420.04 2316.71 427.4 2322.79 433.16C2329.19 438.92 2338.31 441.8 2350.15 441.8C2359.43 441.8 2367.59 439.72 2374.63 435.56C2381.99 431.08 2387.75 425.16 2391.91 417.8C2396.07 410.12 2398.15 401.48 2398.15 391.88V336.68C2398.15 322.6 2394.95 312.68 2388.55 306.92C2382.15 300.84 2371.27 297.8 2355.91 297.8C2347.27 297.8 2337.83 298.92 2327.59 301.16C2317.67 303.08 2306.63 306.44 2294.47 311.24C2287.43 314.44 2281.19 315.24 2275.75 313.64C2270.31 311.72 2266.15 308.52 2263.27 304.04C2260.39 299.24 2258.95 294.12 2258.95 288.68C2258.95 282.92 2260.55 277.48 2263.75 272.36C2266.95 266.92 2272.23 262.92 2279.59 260.36C2294.63 254.28 2308.71 250.12 2321.83 247.88C2335.27 245.64 2347.59 244.52 2358.79 244.52C2383.43 244.52 2403.59 248.2 2419.27 255.56C2435.27 262.6 2447.27 273.64 2455.27 288.68C2463.27 303.4 2467.27 322.44 2467.27 345.8V452.36C2467.27 464.2 2464.39 473.32 2458.63 479.72C2452.87 486.12 2444.55 489.32 2433.67 489.32C2422.79 489.32 2414.31 486.12 2408.23 479.72C2402.47 473.32 2399.59 464.2 2399.59 452.36V434.6L2402.95 437.48C2401.03 448.36 2396.87 457.8 2390.47 465.8C2384.39 473.48 2376.55 479.56 2366.95 484.04C2357.35 488.2 2346.31 490.28 2333.83 490.28ZM2557.82 489.32C2545.98 489.32 2536.86 486.12 2530.46 479.72C2524.38 473.32 2521.34 464.2 2521.34 452.36V281.96C2521.34 270.12 2524.38 261.16 2530.46 255.08C2536.86 248.68 2545.66 245.48 2556.86 245.48C2568.38 245.48 2577.18 248.68 2583.26 255.08C2589.34 261.16 2592.38 270.12 2592.38 281.96V309.32L2587.1 293.48C2594.46 277.8 2605.34 265.8 2619.74 257.48C2634.46 248.84 2651.1 244.52 2669.66 244.52C2688.54 244.52 2704.06 248.2 2716.22 255.56C2728.38 262.6 2737.5 273.48 2743.58 288.2C2749.66 302.6 2752.7 321 2752.7 343.4V452.36C2752.7 464.2 2749.5 473.32 2743.1 479.72C2737.02 486.12 2728.06 489.32 2716.22 489.32C2704.7 489.32 2695.74 486.12 2689.34 479.72C2683.26 473.32 2680.22 464.2 2680.22 452.36V346.76C2680.22 330.44 2677.18 318.76 2671.1 311.72C2665.34 304.36 2656.38 300.68 2644.22 300.68C2628.86 300.68 2616.54 305.48 2607.26 315.08C2598.3 324.68 2593.82 337.48 2593.82 353.48V452.36C2593.82 477 2581.82 489.32 2557.82 489.32Z" fill="black"/>
</svg>
