<svg width="2836" height="655" viewBox="0 0 2836 655" fill="none" xmlns="http://www.w3.org/2000/svg">
<rect y="154" width="75" height="350" rx="37.5" fill="#0B22EE"/>
<rect x="35" y="329.033" width="75" height="255" rx="37.5" transform="rotate(-45 35 329.033)" fill="#0B93EE"/>
<rect x="88.033" y="381.881" width="75" height="260" rx="37.5" transform="rotate(-135 88.033 381.881)" fill="#0B93EE"/>
<rect x="2835.88" y="327.312" width="75" height="255" rx="37.5" transform="rotate(135 2835.88 327.312)" fill="#0B93EE"/>
<rect x="2782.85" y="274.464" width="75" height="260" rx="37.5" transform="rotate(45 2782.85 274.464)" fill="#0B93EE"/>
<path d="M363.52 489.32C351.36 489.32 342.08 485.96 335.68 479.24C329.28 472.52 326.08 463.08 326.08 450.92V180.2C326.08 168.04 329.28 158.76 335.68 152.36C342.08 145.64 351.36 142.28 363.52 142.28C375.36 142.28 384.48 145.64 390.88 152.36C397.28 158.76 400.48 168.04 400.48 180.2V293.96H401.44L529.12 160.52C534.56 154.76 540.16 150.44 545.92 147.56C552 144.36 558.88 142.76 566.56 142.76C577.76 142.76 585.76 145.64 590.56 151.4C595.68 157.16 597.92 163.88 597.28 171.56C596.64 179.24 593.12 186.44 586.72 193.16L458.56 324.2L459.04 292.04L593.44 435.56C600.8 443.56 604.48 451.72 604.48 460.04C604.8 468.36 602.08 475.4 596.32 481.16C590.88 486.6 582.72 489.32 571.84 489.32C562.56 489.32 555.04 487.4 549.28 483.56C543.84 479.72 537.76 474.12 531.04 466.76L401.44 330.44H400.48V450.92C400.48 463.08 397.28 472.52 390.88 479.24C384.8 485.96 375.68 489.32 363.52 489.32ZM729.989 490.28C712.709 490.28 697.189 486.92 683.429 480.2C669.669 473.48 658.949 464.36 651.269 452.84C643.589 441.32 639.749 428.36 639.749 413.96C639.749 396.68 644.229 383.08 653.189 373.16C662.149 362.92 676.709 355.72 696.869 351.56C717.029 347.08 743.749 344.84 777.029 344.84H802.469V382.28H777.509C761.189 382.28 747.909 383.24 737.669 385.16C727.749 386.76 720.549 389.64 716.069 393.8C711.909 397.96 709.829 403.72 709.829 411.08C709.829 420.04 712.869 427.4 718.949 433.16C725.349 438.92 734.469 441.8 746.309 441.8C755.589 441.8 763.749 439.72 770.789 435.56C778.149 431.08 783.909 425.16 788.069 417.8C792.229 410.12 794.309 401.48 794.309 391.88V336.68C794.309 322.6 791.109 312.68 784.709 306.92C778.309 300.84 767.429 297.8 752.069 297.8C743.429 297.8 733.989 298.92 723.749 301.16C713.829 303.08 702.789 306.44 690.629 311.24C683.589 314.44 677.349 315.24 671.909 313.64C666.469 311.72 662.309 308.52 659.429 304.04C656.549 299.24 655.109 294.12 655.109 288.68C655.109 282.92 656.709 277.48 659.909 272.36C663.109 266.92 668.389 262.92 675.749 260.36C690.789 254.28 704.869 250.12 717.989 247.88C731.429 245.64 743.749 244.52 754.949 244.52C779.589 244.52 799.749 248.2 815.429 255.56C831.429 262.6 843.429 273.64 851.429 288.68C859.429 303.4 863.429 322.44 863.429 345.8V452.36C863.429 464.2 860.549 473.32 854.789 479.72C849.029 486.12 840.709 489.32 829.829 489.32C818.949 489.32 810.469 486.12 804.389 479.72C798.629 473.32 795.749 464.2 795.749 452.36V434.6L799.109 437.48C797.189 448.36 793.029 457.8 786.629 465.8C780.549 473.48 772.709 479.56 763.109 484.04C753.509 488.2 742.469 490.28 729.989 490.28ZM1007.74 490.28C993.656 490.28 979.096 489 964.056 486.44C949.336 483.88 935.896 479.56 923.736 473.48C917.336 470.28 912.696 466.28 909.816 461.48C907.256 456.36 906.136 451.24 906.456 446.12C906.776 441 908.376 436.36 911.256 432.2C914.456 428.04 918.456 425.32 923.256 424.04C928.376 422.44 933.976 422.92 940.056 425.48C953.176 430.92 965.176 434.76 976.056 437C986.936 439.24 997.656 440.36 1008.22 440.36C1021.98 440.36 1031.9 438.28 1037.98 434.12C1044.38 429.64 1047.58 423.88 1047.58 416.84C1047.58 410.44 1045.5 405.64 1041.34 402.44C1037.18 399.24 1031.1 397 1023.1 395.72L972.696 386.6C952.856 383.08 937.496 375.88 926.616 365C916.056 353.8 910.776 339.56 910.776 322.28C910.776 306.28 915.256 292.52 924.216 281C933.176 269.16 945.496 260.2 961.176 254.12C977.176 247.72 995.256 244.52 1015.42 244.52C1029.82 244.52 1043.1 245.8 1055.26 248.36C1067.42 250.92 1079.1 255.08 1090.3 260.84C1096.06 263.72 1100.06 267.56 1102.3 272.36C1104.86 277.16 1105.66 282.12 1104.7 287.24C1104.06 292.36 1102.14 297 1098.94 301.16C1095.74 305.32 1091.58 308.04 1086.46 309.32C1081.66 310.6 1076.06 309.96 1069.66 307.4C1059.42 302.6 1049.98 299.24 1041.34 297.32C1032.7 295.08 1024.38 293.96 1016.38 293.96C1001.98 293.96 991.576 296.36 985.176 301.16C978.776 305.64 975.576 311.4 975.576 318.44C975.576 323.88 977.336 328.52 980.856 332.36C984.696 335.88 990.456 338.28 998.136 339.56L1048.54 348.68C1069.34 352.2 1085.18 359.24 1096.06 369.8C1106.94 380.04 1112.38 394.12 1112.38 412.04C1112.38 436.36 1102.78 455.56 1083.58 469.64C1064.7 483.4 1039.42 490.28 1007.74 490.28ZM1299.19 490.28C1280.31 490.28 1263.51 485.64 1248.79 476.36C1234.39 466.76 1224.79 454.12 1219.99 438.44L1225.27 422.6V452.36C1225.27 464.2 1222.23 473.32 1216.15 479.72C1210.07 486.12 1201.27 489.32 1189.75 489.32C1178.23 489.32 1169.27 486.12 1162.87 479.72C1156.79 473.32 1153.75 464.2 1153.75 452.36V179.24C1153.75 167.08 1156.79 157.96 1162.87 151.88C1169.27 145.48 1178.39 142.28 1190.23 142.28C1201.75 142.28 1210.55 145.48 1216.63 151.88C1223.03 157.96 1226.23 167.08 1226.23 179.24V293H1220.47C1225.59 278.6 1235.35 266.92 1249.75 257.96C1264.15 249 1280.63 244.52 1299.19 244.52C1319.99 244.52 1338.07 249.48 1353.43 259.4C1368.79 269.32 1380.79 283.4 1389.43 301.64C1398.07 319.88 1402.39 341.64 1402.39 366.92C1402.39 392.2 1398.07 414.12 1389.43 432.68C1380.79 451.24 1368.63 465.48 1352.95 475.4C1337.59 485.32 1319.67 490.28 1299.19 490.28ZM1277.59 436.04C1287.83 436.04 1296.79 433.48 1304.47 428.36C1312.47 423.24 1318.55 415.72 1322.71 405.8C1327.19 395.56 1329.43 382.6 1329.43 366.92C1329.43 343.56 1324.63 326.44 1315.03 315.56C1305.43 304.36 1292.95 298.76 1277.59 298.76C1267.35 298.76 1258.23 301.16 1250.23 305.96C1242.55 310.76 1236.47 318.28 1231.99 328.52C1227.51 338.44 1225.27 351.24 1225.27 366.92C1225.27 390.28 1230.07 407.72 1239.67 419.24C1249.27 430.44 1261.91 436.04 1277.59 436.04ZM1526.4 490.28C1509.12 490.28 1493.6 486.92 1479.84 480.2C1466.08 473.48 1455.36 464.36 1447.68 452.84C1440 441.32 1436.16 428.36 1436.16 413.96C1436.16 396.68 1440.64 383.08 1449.6 373.16C1458.56 362.92 1473.12 355.72 1493.28 351.56C1513.44 347.08 1540.16 344.84 1573.44 344.84H1598.88V382.28H1573.92C1557.6 382.28 1544.32 383.24 1534.08 385.16C1524.16 386.76 1516.96 389.64 1512.48 393.8C1508.32 397.96 1506.24 403.72 1506.24 411.08C1506.24 420.04 1509.28 427.4 1515.36 433.16C1521.76 438.92 1530.88 441.8 1542.72 441.8C1552 441.8 1560.16 439.72 1567.2 435.56C1574.56 431.08 1580.32 425.16 1584.48 417.8C1588.64 410.12 1590.72 401.48 1590.72 391.88V336.68C1590.72 322.6 1587.52 312.68 1581.12 306.92C1574.72 300.84 1563.84 297.8 1548.48 297.8C1539.84 297.8 1530.4 298.92 1520.16 301.16C1510.24 303.08 1499.2 306.44 1487.04 311.24C1480 314.44 1473.76 315.24 1468.32 313.64C1462.88 311.72 1458.72 308.52 1455.84 304.04C1452.96 299.24 1451.52 294.12 1451.52 288.68C1451.52 282.92 1453.12 277.48 1456.32 272.36C1459.52 266.92 1464.8 262.92 1472.16 260.36C1487.2 254.28 1501.28 250.12 1514.4 247.88C1527.84 245.64 1540.16 244.52 1551.36 244.52C1576 244.52 1596.16 248.2 1611.84 255.56C1627.84 262.6 1639.84 273.64 1647.84 288.68C1655.84 303.4 1659.84 322.44 1659.84 345.8V452.36C1659.84 464.2 1656.96 473.32 1651.2 479.72C1645.44 486.12 1637.12 489.32 1626.24 489.32C1615.36 489.32 1606.88 486.12 1600.8 479.72C1595.04 473.32 1592.16 464.2 1592.16 452.36V434.6L1595.52 437.48C1593.6 448.36 1589.44 457.8 1583.04 465.8C1576.96 473.48 1569.12 479.56 1559.52 484.04C1549.92 488.2 1538.88 490.28 1526.4 490.28ZM1751.34 489.32C1739.18 489.32 1729.9 486.12 1723.5 479.72C1717.1 473.32 1713.9 464.2 1713.9 452.36V281.96C1713.9 270.12 1716.94 261.16 1723.02 255.08C1729.42 248.68 1738.22 245.48 1749.42 245.48C1760.94 245.48 1769.74 248.68 1775.82 255.08C1781.9 261.16 1784.94 270.12 1784.94 281.96V306.92H1780.14C1783.98 287.72 1792.46 272.84 1805.58 262.28C1818.7 251.72 1835.66 245.8 1856.46 244.52C1864.46 243.88 1870.54 245.96 1874.7 250.76C1879.18 255.24 1881.58 262.76 1881.9 273.32C1882.54 283.24 1880.46 291.08 1875.66 296.84C1871.18 302.6 1863.5 306.12 1852.62 307.4L1841.58 308.36C1823.34 309.96 1809.74 315.24 1800.78 324.2C1792.14 333.16 1787.82 346.12 1787.82 363.08V452.36C1787.82 464.2 1784.62 473.32 1778.22 479.72C1772.14 486.12 1763.18 489.32 1751.34 489.32ZM1948.2 488.84C1936.36 488.84 1927.24 485.48 1920.84 478.76C1914.76 471.72 1911.72 461.96 1911.72 449.48V285.32C1911.72 272.52 1914.76 262.76 1920.84 256.04C1927.24 249 1936.36 245.48 1948.2 245.48C1959.72 245.48 1968.52 249 1974.6 256.04C1981 262.76 1984.2 272.52 1984.2 285.32V449.48C1984.2 461.96 1981.16 471.72 1975.08 478.76C1969 485.48 1960.04 488.84 1948.2 488.84ZM1948.2 206.12C1934.76 206.12 1924.36 203.08 1917 197C1909.96 190.6 1906.44 181.64 1906.44 170.12C1906.44 158.28 1909.96 149.32 1917 143.24C1924.36 136.84 1934.76 133.64 1948.2 133.64C1961.64 133.64 1971.88 136.84 1978.92 143.24C1985.96 149.32 1989.48 158.28 1989.48 170.12C1989.48 181.64 1985.96 190.6 1978.92 197C1971.88 203.08 1961.64 206.12 1948.2 206.12ZM2119.83 490.28C2102.55 490.28 2087.03 486.92 2073.27 480.2C2059.51 473.48 2048.79 464.36 2041.11 452.84C2033.43 441.32 2029.59 428.36 2029.59 413.96C2029.59 396.68 2034.07 383.08 2043.03 373.16C2051.99 362.92 2066.55 355.72 2086.71 351.56C2106.87 347.08 2133.59 344.84 2166.87 344.84H2192.31V382.28H2167.35C2151.03 382.28 2137.75 383.24 2127.51 385.16C2117.59 386.76 2110.39 389.64 2105.91 393.8C2101.75 397.96 2099.67 403.72 2099.67 411.08C2099.67 420.04 2102.71 427.4 2108.79 433.16C2115.19 438.92 2124.31 441.8 2136.15 441.8C2145.43 441.8 2153.59 439.72 2160.63 435.56C2167.99 431.08 2173.75 425.16 2177.91 417.8C2182.07 410.12 2184.15 401.48 2184.15 391.88V336.68C2184.15 322.6 2180.95 312.68 2174.55 306.92C2168.15 300.84 2157.27 297.8 2141.91 297.8C2133.27 297.8 2123.83 298.92 2113.59 301.16C2103.67 303.08 2092.63 306.44 2080.47 311.24C2073.43 314.44 2067.19 315.24 2061.75 313.64C2056.31 311.72 2052.15 308.52 2049.27 304.04C2046.39 299.24 2044.95 294.12 2044.95 288.68C2044.95 282.92 2046.55 277.48 2049.75 272.36C2052.95 266.92 2058.23 262.92 2065.59 260.36C2080.63 254.28 2094.71 250.12 2107.83 247.88C2121.27 245.64 2133.59 244.52 2144.79 244.52C2169.43 244.52 2189.59 248.2 2205.27 255.56C2221.27 262.6 2233.27 273.64 2241.27 288.68C2249.27 303.4 2253.27 322.44 2253.27 345.8V452.36C2253.27 464.2 2250.39 473.32 2244.63 479.72C2238.87 486.12 2230.55 489.32 2219.67 489.32C2208.79 489.32 2200.31 486.12 2194.23 479.72C2188.47 473.32 2185.59 464.2 2185.59 452.36V434.6L2188.95 437.48C2187.03 448.36 2182.87 457.8 2176.47 465.8C2170.39 473.48 2162.55 479.56 2152.95 484.04C2143.35 488.2 2132.31 490.28 2119.83 490.28ZM2343.82 489.32C2331.98 489.32 2322.86 486.12 2316.46 479.72C2310.38 473.32 2307.34 464.2 2307.34 452.36V281.96C2307.34 270.12 2310.38 261.16 2316.46 255.08C2322.86 248.68 2331.66 245.48 2342.86 245.48C2354.38 245.48 2363.18 248.68 2369.26 255.08C2375.34 261.16 2378.38 270.12 2378.38 281.96V309.32L2373.1 293.48C2380.46 277.8 2391.34 265.8 2405.74 257.48C2420.46 248.84 2437.1 244.52 2455.66 244.52C2474.54 244.52 2490.06 248.2 2502.22 255.56C2514.38 262.6 2523.5 273.48 2529.58 288.2C2535.66 302.6 2538.7 321 2538.7 343.4V452.36C2538.7 464.2 2535.5 473.32 2529.1 479.72C2523.02 486.12 2514.06 489.32 2502.22 489.32C2490.7 489.32 2481.74 486.12 2475.34 479.72C2469.26 473.32 2466.22 464.2 2466.22 452.36V346.76C2466.22 330.44 2463.18 318.76 2457.1 311.72C2451.34 304.36 2442.38 300.68 2430.22 300.68C2414.86 300.68 2402.54 305.48 2393.26 315.08C2384.3 324.68 2379.82 337.48 2379.82 353.48V452.36C2379.82 477 2367.82 489.32 2343.82 489.32Z" fill="black"/>
</svg>
